<svg xmlns="http://www.w3.org/2000/svg" width="400" height="300" viewBox="0 0 400 300">
  <rect width="400" height="300" fill="#f8f9fa"/>
  <rect x="20" y="20" width="360" height="260" fill="white" stroke="#dee2e6" stroke-width="2"/>
  <rect x="40" y="40" width="120" height="15" fill="#1a365d" rx="2"/>
  <rect x="40" y="65" width="80" height="10" fill="#6c757d" rx="2"/>
  <rect x="40" y="90" width="320" height="1" fill="#dee2e6"/>
  <rect x="40" y="110" width="100" height="12" fill="#1a365d" rx="2"/>
  <rect x="40" y="130" width="320" height="8" fill="#6c757d" rx="2"/>
  <rect x="40" y="145" width="320" height="8" fill="#6c757d" rx="2"/>
  <rect x="40" y="160" width="320" height="8" fill="#6c757d" rx="2"/>
  <rect x="40" y="185" width="100" height="12" fill="#1a365d" rx="2"/>
  <rect x="40" y="205" width="320" height="8" fill="#6c757d" rx="2"/>
  <rect x="40" y="220" width="320" height="8" fill="#6c757d" rx="2"/>
  <rect x="40" y="235" width="320" height="8" fill="#6c757d" rx="2"/>
</svg>