<svg xmlns="http://www.w3.org/2000/svg" viewBox="0 0 32 32" fill="none">
  <!-- Document background -->
  <rect x="4" y="2" width="24" height="28" rx="3" fill="#3B82F6"/>
  
  <!-- Document fold -->
  <path d="M22 2H28C29.1046 2 30 2.89543 30 4V10L22 2Z" fill="#2563EB"/>
  
  <!-- Document content lines -->
  <rect x="8" y="8" width="16" height="2" rx="1" fill="white" opacity="0.9"/>
  <rect x="8" y="12" width="12" height="2" rx="1" fill="white" opacity="0.7"/>
  <rect x="8" y="16" width="14" height="2" rx="1" fill="white" opacity="0.7"/>
  <rect x="8" y="20" width="10" height="2" rx="1" fill="white" opacity="0.5"/>
  
  <!-- Pen/pencil icon -->
  <path d="M24 22L28 18L26 16L22 20V22H24Z" fill="#FBBF24" stroke="#F59E0B" stroke-width="0.5"/>
  <path d="M22 20L20 22L19 28L20 28L26 16L24 18L22 20Z" fill="#FBBF24"/>
  <path d="M19 28L20 28L20.5 26.5L19.5 26.5L19 28Z" fill="#F59E0B"/>
</svg>